<svg width="83" height="58" viewBox="0 0 83 58" fill="none" xmlns="http://www.w3.org/2000/svg">
<path d="M81.1902 21.2168H71.1882V31.2158H11.1882V21.2168H1.19019V41.2158C1.19019 43.9768 3.42919 46.2158 6.18919 46.2158H76.1882C78.9502 46.2158 81.1902 43.9768 81.1902 41.2158V21.2168Z" stroke="white" stroke-width="2" stroke-miterlimit="10" stroke-linecap="round" stroke-linejoin="round"/>
<path d="M54.5192 1.21582H27.8522V31.2158H54.5192V1.21582Z" stroke="white" stroke-width="2" stroke-miterlimit="10" stroke-linecap="round" stroke-linejoin="round"/>
<path d="M54.5182 31.2158H71.1882V21.2168H81.1902V6.21682C81.1902 3.45282 78.9502 1.21582 76.1882 1.21582H54.5182V31.2158Z" stroke="white" stroke-width="2" stroke-miterlimit="10" stroke-linecap="round" stroke-linejoin="round"/>
<path d="M27.8522 1.21582H6.19019C3.43019 1.21582 1.19019 3.45282 1.19019 6.21682V21.2168H11.1872V31.2158H27.8512L27.8522 1.21582Z" stroke="white" stroke-width="2" stroke-miterlimit="10" stroke-linecap="round" stroke-linejoin="round"/>
<path d="M11.1882 46.2158H6.19019V56.2158H11.1882V46.2158Z" stroke="white" stroke-width="2" stroke-miterlimit="10" stroke-linecap="round" stroke-linejoin="round"/>
<path d="M76.1882 46.2158H71.1882V56.2158H76.1882V46.2158Z" stroke="white" stroke-width="2" stroke-miterlimit="10" stroke-linecap="round" stroke-linejoin="round"/>
</svg>
